<svg xmlns="http://www.w3.org/2000/svg" viewBox="0 0 318.19 122.54"><defs><style>.cls-1{fill:#fff;}</style></defs><g id="Layer_2" data-name="Layer 2"><g id="Layer_1-2" data-name="Layer 1"><polygon class="cls-1" points="0 120.84 14.64 120.84 14.64 29.1 15.49 29.1 57.7 120.84 68.76 120.84 110.97 29.1 111.82 29.1 111.82 120.84 126.46 120.84 126.46 0 110.12 0 63.14 101.95 16.34 0 0 0 0 120.84"/><path class="cls-1" d="M242.88,17.14h14.3V0h-14.3Zm0,103.7h14.3V32.34h-14.3Z"/><polygon class="cls-1" points="318.19 46.63 318.19 32.34 275.73 32.34 275.73 120.84 290.02 120.84 290.02 76.42 290.02 54.29 290.02 46.63 318.19 46.63"/><path class="cls-1" d="M154.62,71c2.21-18.55,16-27.91,30.64-27.91,14.8,0,28.59,9.7,29.61,27.91Zm31.83,51.57c14.29,0,27.06-5.78,35.06-15.66l-7.15-7.31c-6.47,7-16,10.72-26.38,10.72-17,0-31.15-9.87-33.36-28.42h72.85C231,46.8,207.55,30.64,185.09,30.64c-22.3,0-44.09,16.16-44.09,46,0,29.44,21.62,46,45.45,46"/></g></g></svg>