<svg width="21" height="17" viewBox="0 0 21 17" fill="none" xmlns="http://www.w3.org/2000/svg">
<path d="M0.473694 1.66136C0.473694 1.08915 0.91385 0.60498 1.53007 0.60498H19.1363C19.7085 0.60498 20.1927 1.08915 20.1927 1.66136C20.1927 2.27757 19.7085 2.71773 19.1363 2.71773H1.53007C0.91385 2.71773 0.473694 2.27757 0.473694 1.66136ZM0.473694 8.70385C0.473694 8.13165 0.91385 7.64748 1.53007 7.64748H13.5023C14.0745 7.64748 14.5587 8.13165 14.5587 8.70385C14.5587 9.32007 14.0745 9.76023 13.5023 9.76023H1.53007C0.91385 9.76023 0.473694 9.32007 0.473694 8.70385ZM7.86832 16.8027H1.53007C0.91385 16.8027 0.473694 16.3626 0.473694 15.7464C0.473694 15.1742 0.91385 14.69 1.53007 14.69H7.86832C8.44052 14.69 8.92469 15.1742 8.92469 15.7464C8.92469 16.3626 8.44052 16.8027 7.86832 16.8027Z" fill="white"/>
</svg>
