<svg width="171" height="59" viewBox="0 0 171 59" fill="none" xmlns="http://www.w3.org/2000/svg">
<path d="M1.95573 57.2682C1.95573 57.4363 1.9059 57.6006 1.81253 57.7403C1.71916 57.88 1.5864 57.9889 1.43113 58.0533C1.27586 58.1176 1.10504 58.1344 0.940202 58.1016C0.775368 58.0688 0.623923 57.9879 0.505084 57.8691C0.386246 57.7502 0.305334 57.5988 0.272547 57.434C0.239759 57.2691 0.256613 57.0983 0.320928 56.943C0.385243 56.7878 0.494154 56.655 0.633893 56.5617C0.773633 56.4683 0.937872 56.4185 1.10593 56.4185C1.3313 56.4185 1.54743 56.508 1.70679 56.6673C1.86614 56.8267 1.95573 57.0428 1.95573 57.2682Z" fill="#F4F4F4"/>
<path d="M20.6628 57.2682C20.6628 57.4363 20.6129 57.6006 20.5196 57.7403C20.4262 57.88 20.2934 57.9889 20.1382 58.0533C19.9829 58.1176 19.8121 58.1344 19.6472 58.1016C19.4824 58.0688 19.331 57.9879 19.2121 57.8691C19.0933 57.7502 19.0124 57.5988 18.9796 57.434C18.9468 57.2691 18.9636 57.0983 19.028 56.943C19.0923 56.7878 19.2012 56.655 19.3409 56.5617C19.4807 56.4683 19.6449 56.4185 19.813 56.4185C20.0383 56.4185 20.2545 56.508 20.4138 56.6673C20.5732 56.8267 20.6628 57.0428 20.6628 57.2682" fill="#F4F4F4"/>
<path d="M39.3698 57.2682C39.3698 57.4363 39.32 57.6006 39.2266 57.7403C39.1332 57.88 39.0005 57.9889 38.8452 58.0533C38.6899 58.1176 38.5191 58.1344 38.3543 58.1016C38.1894 58.0688 38.038 57.9879 37.9191 57.8691C37.8003 57.7502 37.7194 57.5988 37.6866 57.434C37.6538 57.2691 37.6707 57.0983 37.735 56.943C37.7993 56.7878 37.9082 56.655 38.048 56.5617C38.1877 56.4683 38.3519 56.4185 38.52 56.4185C38.7454 56.4185 38.9615 56.508 39.1208 56.6673C39.2802 56.8267 39.3698 57.0428 39.3698 57.2682Z" fill="#F4F4F4"/>
<path d="M58.0768 57.2682C58.0768 57.4363 58.027 57.6006 57.9336 57.7403C57.8402 57.88 57.7075 57.9889 57.5522 58.0533C57.397 58.1176 57.2261 58.1344 57.0613 58.1016C56.8965 58.0688 56.745 57.9879 56.6262 57.8691C56.5073 57.7502 56.4264 57.5988 56.3936 57.434C56.3609 57.2691 56.3777 57.0983 56.442 56.943C56.5063 56.7878 56.6152 56.655 56.755 56.5617C56.8947 56.4683 57.059 56.4185 57.227 56.4185C57.4524 56.4185 57.6685 56.508 57.8279 56.6673C57.9872 56.8267 58.0768 57.0428 58.0768 57.2682Z" fill="#F4F4F4"/>
<path d="M76.7839 57.2682C76.7839 57.4363 76.734 57.6006 76.6407 57.7403C76.5473 57.88 76.4145 57.9889 76.2593 58.0533C76.104 58.1176 75.9332 58.1344 75.7683 58.1016C75.6035 58.0688 75.452 57.9879 75.3332 57.8691C75.2144 57.7502 75.1335 57.5988 75.1007 57.434C75.0679 57.2691 75.0847 57.0983 75.1491 56.943C75.2134 56.7878 75.3223 56.655 75.462 56.5617C75.6018 56.4683 75.766 56.4185 75.9341 56.4185C76.1594 56.4185 76.3756 56.508 76.5349 56.6673C76.6943 56.8267 76.7839 57.0428 76.7839 57.2682" fill="#F4F4F4"/>
<path d="M95.4909 57.2682C95.4909 57.4363 95.441 57.6006 95.3477 57.7403C95.2543 57.88 95.1215 57.9889 94.9663 58.0533C94.811 58.1176 94.6402 58.1344 94.4753 58.1016C94.3105 58.0688 94.159 57.9879 94.0402 57.8691C93.9214 57.7502 93.8405 57.5988 93.8077 57.434C93.7749 57.2691 93.7917 57.0983 93.8561 56.943C93.9204 56.7878 94.0293 56.655 94.169 56.5617C94.3088 56.4683 94.473 56.4185 94.6411 56.4185C94.8664 56.4185 95.0826 56.508 95.2419 56.6673C95.4013 56.8267 95.4909 57.0428 95.4909 57.2682Z" fill="#F4F4F4"/>
<path d="M114.198 57.2682C114.198 57.4363 114.148 57.6006 114.055 57.7403C113.961 57.88 113.829 57.9889 113.673 58.0533C113.518 58.1176 113.347 58.1344 113.182 58.1016C113.018 58.0688 112.866 57.9879 112.747 57.8691C112.628 57.7502 112.548 57.5988 112.515 57.434C112.482 57.2691 112.499 57.0983 112.563 56.943C112.627 56.7878 112.736 56.655 112.876 56.5617C113.016 56.4683 113.18 56.4185 113.348 56.4185C113.573 56.4185 113.79 56.508 113.949 56.6673C114.108 56.8267 114.198 57.0428 114.198 57.2682Z" fill="#F4F4F4"/>
<path d="M132.905 57.2682C132.905 57.4363 132.855 57.6006 132.762 57.7403C132.668 57.88 132.536 57.9889 132.38 58.0533C132.225 58.1176 132.054 58.1344 131.889 58.1016C131.725 58.0688 131.573 57.9879 131.454 57.8691C131.335 57.7502 131.255 57.5988 131.222 57.434C131.189 57.2691 131.206 57.0983 131.27 56.943C131.334 56.7878 131.443 56.655 131.583 56.5617C131.723 56.4683 131.887 56.4185 132.055 56.4185C132.281 56.4185 132.497 56.508 132.656 56.6673C132.815 56.8267 132.905 57.0428 132.905 57.2682" fill="#F4F4F4"/>
<path d="M151.612 57.2682C151.612 57.4363 151.562 57.6006 151.469 57.7403C151.375 57.88 151.243 57.9889 151.087 58.0533C150.932 58.1176 150.761 58.1344 150.596 58.1016C150.432 58.0688 150.28 57.9879 150.161 57.8691C150.042 57.7502 149.962 57.5988 149.929 57.434C149.896 57.2691 149.913 57.0983 149.977 56.943C150.041 56.7878 150.15 56.655 150.29 56.5617C150.43 56.4683 150.594 56.4185 150.762 56.4185C150.988 56.4185 151.204 56.508 151.363 56.6673C151.522 56.8267 151.612 57.0428 151.612 57.2682Z" fill="#F4F4F4"/>
<path d="M170.319 57.2682C170.319 57.4363 170.269 57.6006 170.176 57.7403C170.082 57.88 169.95 57.9889 169.794 58.0533C169.639 58.1176 169.468 58.1344 169.303 58.1016C169.139 58.0688 168.987 57.9879 168.868 57.8691C168.749 57.7502 168.669 57.5988 168.636 57.434C168.603 57.2691 168.62 57.0983 168.684 56.943C168.748 56.7878 168.857 56.655 168.997 56.5617C169.137 56.4683 169.301 56.4185 169.469 56.4185C169.695 56.4185 169.911 56.508 170.07 56.6673C170.229 56.8267 170.319 57.0428 170.319 57.2682Z" fill="#F4F4F4"/>
<path d="M1.95573 38.5612C1.95573 38.7292 1.9059 38.8935 1.81253 39.0333C1.71916 39.173 1.5864 39.2819 1.43113 39.3462C1.27586 39.4105 1.10504 39.4274 0.940202 39.3946C0.775368 39.3618 0.623923 39.2809 0.505084 39.162C0.386246 39.0432 0.305334 38.8918 0.272547 38.7269C0.239759 38.5621 0.256613 38.3913 0.320928 38.236C0.385243 38.0807 0.494154 37.948 0.633893 37.8546C0.773633 37.7613 0.937872 37.7114 1.10593 37.7114C1.3313 37.7114 1.54743 37.801 1.70679 37.9603C1.86614 38.1197 1.95573 38.3358 1.95573 38.5612Z" fill="#F4F4F4"/>
<path d="M58.0768 38.5612C58.0768 38.7292 58.027 38.8935 57.9336 39.0333C57.8402 39.173 57.7075 39.2819 57.5522 39.3462C57.397 39.4105 57.2261 39.4274 57.0613 39.3946C56.8965 39.3618 56.745 39.2809 56.6262 39.162C56.5073 39.0432 56.4264 38.8918 56.3936 38.7269C56.3609 38.5621 56.3777 38.3913 56.442 38.236C56.5063 38.0807 56.6152 37.948 56.755 37.8546C56.8947 37.7613 57.059 37.7114 57.227 37.7114C57.4524 37.7114 57.6685 37.801 57.8279 37.9603C57.9872 38.1197 58.0768 38.3358 58.0768 38.5612Z" fill="#F4F4F4"/>
<path d="M76.7839 38.5612C76.7839 38.7292 76.734 38.8935 76.6407 39.0333C76.5473 39.173 76.4145 39.2819 76.2593 39.3462C76.104 39.4105 75.9332 39.4274 75.7683 39.3946C75.6035 39.3618 75.452 39.2809 75.3332 39.162C75.2144 39.0432 75.1335 38.8918 75.1007 38.7269C75.0679 38.5621 75.0847 38.3913 75.1491 38.236C75.2134 38.0807 75.3223 37.948 75.462 37.8546C75.6018 37.7613 75.766 37.7114 75.9341 37.7114C76.1594 37.7114 76.3756 37.801 76.5349 37.9603C76.6943 38.1197 76.7839 38.3358 76.7839 38.5612" fill="#F4F4F4"/>
<path d="M95.4909 38.5612C95.4909 38.7292 95.441 38.8935 95.3477 39.0333C95.2543 39.173 95.1215 39.2819 94.9663 39.3462C94.811 39.4105 94.6402 39.4274 94.4753 39.3946C94.3105 39.3618 94.159 39.2809 94.0402 39.162C93.9214 39.0432 93.8405 38.8918 93.8077 38.7269C93.7749 38.5621 93.7917 38.3913 93.8561 38.236C93.9204 38.0807 94.0293 37.948 94.169 37.8546C94.3088 37.7613 94.473 37.7114 94.6411 37.7114C94.8664 37.7114 95.0826 37.801 95.2419 37.9603C95.4013 38.1197 95.4909 38.3358 95.4909 38.5612Z" fill="#F4F4F4"/>
<path d="M114.198 38.5612C114.198 38.7292 114.148 38.8935 114.055 39.0333C113.961 39.173 113.829 39.2819 113.673 39.3462C113.518 39.4105 113.347 39.4274 113.182 39.3946C113.018 39.3618 112.866 39.2809 112.747 39.162C112.628 39.0432 112.548 38.8918 112.515 38.7269C112.482 38.5621 112.499 38.3913 112.563 38.236C112.627 38.0807 112.736 37.948 112.876 37.8546C113.016 37.7613 113.18 37.7114 113.348 37.7114C113.573 37.7114 113.79 37.801 113.949 37.9603C114.108 38.1197 114.198 38.3358 114.198 38.5612Z" fill="#F4F4F4"/>
<path d="M132.905 38.5612C132.905 38.7292 132.855 38.8935 132.762 39.0333C132.668 39.173 132.536 39.2819 132.38 39.3462C132.225 39.4105 132.054 39.4274 131.889 39.3946C131.725 39.3618 131.573 39.2809 131.454 39.162C131.335 39.0432 131.255 38.8918 131.222 38.7269C131.189 38.5621 131.206 38.3913 131.27 38.236C131.334 38.0807 131.443 37.948 131.583 37.8546C131.723 37.7613 131.887 37.7114 132.055 37.7114C132.281 37.7114 132.497 37.801 132.656 37.9603C132.815 38.1197 132.905 38.3358 132.905 38.5612" fill="#F4F4F4"/>
<path d="M151.612 38.5612C151.612 38.7292 151.562 38.8935 151.469 39.0333C151.375 39.173 151.243 39.2819 151.087 39.3462C150.932 39.4105 150.761 39.4274 150.596 39.3946C150.432 39.3618 150.28 39.2809 150.161 39.162C150.042 39.0432 149.962 38.8918 149.929 38.7269C149.896 38.5621 149.913 38.3913 149.977 38.236C150.041 38.0807 150.15 37.948 150.29 37.8546C150.43 37.7613 150.594 37.7114 150.762 37.7114C150.988 37.7114 151.204 37.801 151.363 37.9603C151.522 38.1197 151.612 38.3358 151.612 38.5612Z" fill="#F4F4F4"/>
<path d="M170.319 38.5612C170.319 38.7292 170.269 38.8935 170.176 39.0333C170.082 39.173 169.95 39.2819 169.794 39.3462C169.639 39.4105 169.468 39.4274 169.303 39.3946C169.139 39.3618 168.987 39.2809 168.868 39.162C168.749 39.0432 168.669 38.8918 168.636 38.7269C168.603 38.5621 168.62 38.3913 168.684 38.236C168.748 38.0807 168.857 37.948 168.997 37.8546C169.137 37.7613 169.301 37.7114 169.469 37.7114C169.695 37.7114 169.911 37.801 170.07 37.9603C170.229 38.1197 170.319 38.3358 170.319 38.5612Z" fill="#F4F4F4"/>
<path d="M1.95573 19.8541C1.95573 20.0222 1.9059 20.1865 1.81253 20.3262C1.71916 20.466 1.5864 20.5749 1.43113 20.6392C1.27586 20.7035 1.10504 20.7203 0.940202 20.6876C0.775368 20.6548 0.623923 20.5738 0.505084 20.455C0.386246 20.3362 0.305334 20.1847 0.272547 20.0199C0.239759 19.8551 0.256613 19.6842 0.320928 19.529C0.385243 19.3737 0.494154 19.241 0.633893 19.1476C0.773633 19.0542 0.937872 19.0044 1.10593 19.0044C1.3313 19.0044 1.54743 19.0939 1.70679 19.2533C1.86614 19.4126 1.95573 19.6288 1.95573 19.8541" fill="#F4F4F4"/>
<path d="M58.0768 19.8541C58.0768 20.0222 58.027 20.1865 57.9336 20.3262C57.8402 20.466 57.7075 20.5749 57.5522 20.6392C57.397 20.7035 57.2261 20.7203 57.0613 20.6876C56.8965 20.6548 56.745 20.5738 56.6262 20.455C56.5073 20.3362 56.4264 20.1847 56.3936 20.0199C56.3609 19.8551 56.3777 19.6842 56.442 19.529C56.5063 19.3737 56.6152 19.241 56.755 19.1476C56.8947 19.0542 57.059 19.0044 57.227 19.0044C57.4524 19.0044 57.6685 19.0939 57.8279 19.2533C57.9872 19.4126 58.0768 19.6288 58.0768 19.8541" fill="#F4F4F4"/>
<path d="M76.7839 19.8541C76.7839 20.0222 76.734 20.1865 76.6407 20.3262C76.5473 20.466 76.4145 20.5749 76.2593 20.6392C76.104 20.7035 75.9332 20.7203 75.7683 20.6876C75.6035 20.6548 75.452 20.5738 75.3332 20.455C75.2144 20.3362 75.1335 20.1847 75.1007 20.0199C75.0679 19.8551 75.0847 19.6842 75.1491 19.529C75.2134 19.3737 75.3223 19.241 75.462 19.1476C75.6018 19.0542 75.766 19.0044 75.9341 19.0044C76.1594 19.0044 76.3756 19.0939 76.5349 19.2533C76.6943 19.4126 76.7839 19.6288 76.7839 19.8541" fill="#F4F4F4"/>
<path d="M95.4909 19.8541C95.4909 20.0222 95.441 20.1865 95.3477 20.3262C95.2543 20.466 95.1215 20.5749 94.9663 20.6392C94.811 20.7035 94.6402 20.7203 94.4753 20.6876C94.3105 20.6548 94.159 20.5738 94.0402 20.455C93.9214 20.3362 93.8405 20.1847 93.8077 20.0199C93.7749 19.8551 93.7917 19.6842 93.8561 19.529C93.9204 19.3737 94.0293 19.241 94.169 19.1476C94.3088 19.0542 94.473 19.0044 94.6411 19.0044C94.8664 19.0044 95.0826 19.0939 95.2419 19.2533C95.4013 19.4126 95.4909 19.6288 95.4909 19.8541" fill="#F4F4F4"/>
<path d="M114.198 19.8541C114.198 20.0222 114.148 20.1865 114.055 20.3262C113.961 20.466 113.829 20.5749 113.673 20.6392C113.518 20.7035 113.347 20.7203 113.182 20.6876C113.018 20.6548 112.866 20.5738 112.747 20.455C112.628 20.3362 112.548 20.1847 112.515 20.0199C112.482 19.8551 112.499 19.6842 112.563 19.529C112.627 19.3737 112.736 19.241 112.876 19.1476C113.016 19.0542 113.18 19.0044 113.348 19.0044C113.573 19.0044 113.79 19.0939 113.949 19.2533C114.108 19.4126 114.198 19.6288 114.198 19.8541" fill="#F4F4F4"/>
<path d="M132.905 19.8541C132.905 20.0222 132.855 20.1865 132.762 20.3262C132.668 20.466 132.536 20.5749 132.38 20.6392C132.225 20.7035 132.054 20.7203 131.889 20.6876C131.725 20.6548 131.573 20.5738 131.454 20.455C131.335 20.3362 131.255 20.1847 131.222 20.0199C131.189 19.8551 131.206 19.6842 131.27 19.529C131.334 19.3737 131.443 19.241 131.583 19.1476C131.723 19.0542 131.887 19.0044 132.055 19.0044C132.281 19.0044 132.497 19.0939 132.656 19.2533C132.815 19.4126 132.905 19.6288 132.905 19.8541" fill="#F4F4F4"/>
<path d="M151.612 19.8541C151.612 20.0222 151.562 20.1865 151.469 20.3262C151.375 20.466 151.243 20.5749 151.087 20.6392C150.932 20.7035 150.761 20.7203 150.596 20.6876C150.432 20.6548 150.28 20.5738 150.161 20.455C150.042 20.3362 149.962 20.1847 149.929 20.0199C149.896 19.8551 149.913 19.6842 149.977 19.529C150.041 19.3737 150.15 19.241 150.29 19.1476C150.43 19.0542 150.594 19.0044 150.762 19.0044C150.988 19.0044 151.204 19.0939 151.363 19.2533C151.522 19.4126 151.612 19.6288 151.612 19.8541" fill="#F4F4F4"/>
<path d="M170.319 19.8541C170.319 20.0222 170.269 20.1865 170.176 20.3262C170.082 20.466 169.95 20.5749 169.794 20.6392C169.639 20.7035 169.468 20.7203 169.303 20.6876C169.139 20.6548 168.987 20.5738 168.868 20.455C168.749 20.3362 168.669 20.1847 168.636 20.0199C168.603 19.8551 168.62 19.6842 168.684 19.529C168.748 19.3737 168.857 19.241 168.997 19.1476C169.137 19.0542 169.301 19.0044 169.469 19.0044C169.695 19.0044 169.911 19.0939 170.07 19.2533C170.229 19.4126 170.319 19.6288 170.319 19.8541" fill="#F4F4F4"/>
<path d="M1.95573 1.1471C1.95573 1.31517 1.9059 1.47946 1.81253 1.6192C1.71916 1.75894 1.5864 1.86785 1.43113 1.93217C1.27586 1.99648 1.10504 2.01332 0.940202 1.98053C0.775368 1.94774 0.623923 1.86681 0.505084 1.74797C0.386246 1.62914 0.305334 1.47771 0.272547 1.31288C0.239759 1.14804 0.256613 0.977197 0.320928 0.821927C0.385243 0.666657 0.494154 0.533941 0.633893 0.44057C0.773633 0.347199 0.937872 0.297363 1.10593 0.297363C1.3313 0.297363 1.54743 0.386896 1.70679 0.546253C1.86614 0.705611 1.95573 0.921738 1.95573 1.1471Z" fill="#F4F4F4"/>
<path d="M20.6628 1.1471C20.6628 1.31517 20.6129 1.47946 20.5196 1.6192C20.4262 1.75894 20.2934 1.86785 20.1382 1.93217C19.9829 1.99648 19.8121 2.01332 19.6472 1.98053C19.4824 1.94774 19.331 1.86681 19.2121 1.74797C19.0933 1.62914 19.0124 1.47771 18.9796 1.31288C18.9468 1.14804 18.9636 0.977197 19.028 0.821927C19.0923 0.666657 19.2012 0.533941 19.3409 0.44057C19.4807 0.347199 19.6449 0.297363 19.813 0.297363C20.0383 0.297363 20.2545 0.386896 20.4138 0.546253C20.5732 0.705611 20.6628 0.921738 20.6628 1.1471" fill="#F4F4F4"/>
<path d="M39.3698 1.1471C39.3698 1.31517 39.32 1.47946 39.2266 1.6192C39.1332 1.75894 39.0005 1.86785 38.8452 1.93217C38.6899 1.99648 38.5191 2.01332 38.3543 1.98053C38.1894 1.94774 38.038 1.86681 37.9191 1.74797C37.8003 1.62914 37.7194 1.47771 37.6866 1.31288C37.6538 1.14804 37.6707 0.977197 37.735 0.821927C37.7993 0.666657 37.9082 0.533941 38.048 0.44057C38.1877 0.347199 38.3519 0.297363 38.52 0.297363C38.7454 0.297363 38.9615 0.386896 39.1208 0.546253C39.2802 0.705611 39.3698 0.921738 39.3698 1.1471Z" fill="#F4F4F4"/>
<path d="M58.0768 1.1471C58.0768 1.31517 58.027 1.47946 57.9336 1.6192C57.8402 1.75894 57.7075 1.86785 57.5522 1.93217C57.397 1.99648 57.2261 2.01332 57.0613 1.98053C56.8965 1.94774 56.745 1.86681 56.6262 1.74797C56.5073 1.62914 56.4264 1.47771 56.3936 1.31288C56.3609 1.14804 56.3777 0.977197 56.442 0.821927C56.5063 0.666657 56.6152 0.533941 56.755 0.44057C56.8947 0.347199 57.059 0.297363 57.227 0.297363C57.4524 0.297363 57.6685 0.386896 57.8279 0.546253C57.9872 0.705611 58.0768 0.921738 58.0768 1.1471Z" fill="#F4F4F4"/>
<path d="M76.7839 1.1471C76.7839 1.31517 76.734 1.47946 76.6407 1.6192C76.5473 1.75894 76.4145 1.86785 76.2593 1.93217C76.104 1.99648 75.9332 2.01332 75.7683 1.98053C75.6035 1.94774 75.452 1.86681 75.3332 1.74797C75.2144 1.62914 75.1335 1.47771 75.1007 1.31288C75.0679 1.14804 75.0847 0.977197 75.1491 0.821927C75.2134 0.666657 75.3223 0.533941 75.462 0.44057C75.6018 0.347199 75.766 0.297363 75.9341 0.297363C76.1594 0.297363 76.3756 0.386896 76.5349 0.546253C76.6943 0.705611 76.7839 0.921738 76.7839 1.1471" fill="#F4F4F4"/>
<path d="M95.4909 1.1471C95.4909 1.31517 95.441 1.47946 95.3477 1.6192C95.2543 1.75894 95.1215 1.86785 94.9663 1.93217C94.811 1.99648 94.6402 2.01332 94.4753 1.98053C94.3105 1.94774 94.159 1.86681 94.0402 1.74797C93.9214 1.62914 93.8405 1.47771 93.8077 1.31288C93.7749 1.14804 93.7917 0.977197 93.8561 0.821927C93.9204 0.666657 94.0293 0.533941 94.169 0.44057C94.3088 0.347199 94.473 0.297363 94.6411 0.297363C94.8664 0.297363 95.0826 0.386896 95.2419 0.546253C95.4013 0.705611 95.4909 0.921738 95.4909 1.1471Z" fill="#F4F4F4"/>
<path d="M114.198 1.1471C114.198 1.31517 114.148 1.47946 114.055 1.6192C113.961 1.75894 113.829 1.86785 113.673 1.93217C113.518 1.99648 113.347 2.01332 113.182 1.98053C113.018 1.94774 112.866 1.86681 112.747 1.74797C112.628 1.62914 112.548 1.47771 112.515 1.31288C112.482 1.14804 112.499 0.977197 112.563 0.821927C112.627 0.666657 112.736 0.533941 112.876 0.44057C113.016 0.347199 113.18 0.297363 113.348 0.297363C113.573 0.297363 113.79 0.386896 113.949 0.546253C114.108 0.705611 114.198 0.921738 114.198 1.1471Z" fill="#F4F4F4"/>
<path d="M132.905 1.1471C132.905 1.31517 132.855 1.47946 132.762 1.6192C132.668 1.75894 132.536 1.86785 132.38 1.93217C132.225 1.99648 132.054 2.01332 131.889 1.98053C131.725 1.94774 131.573 1.86681 131.454 1.74797C131.335 1.62914 131.255 1.47771 131.222 1.31288C131.189 1.14804 131.206 0.977197 131.27 0.821927C131.334 0.666657 131.443 0.533941 131.583 0.44057C131.723 0.347199 131.887 0.297363 132.055 0.297363C132.281 0.297363 132.497 0.386896 132.656 0.546253C132.815 0.705611 132.905 0.921738 132.905 1.1471" fill="#F4F4F4"/>
<path d="M151.612 1.1471C151.612 1.31517 151.562 1.47946 151.469 1.6192C151.375 1.75894 151.243 1.86785 151.087 1.93217C150.932 1.99648 150.761 2.01332 150.596 1.98053C150.432 1.94774 150.28 1.86681 150.161 1.74797C150.042 1.62914 149.962 1.47771 149.929 1.31288C149.896 1.14804 149.913 0.977197 149.977 0.821927C150.041 0.666657 150.15 0.533941 150.29 0.44057C150.43 0.347199 150.594 0.297363 150.762 0.297363C150.988 0.297363 151.204 0.386896 151.363 0.546253C151.522 0.705611 151.612 0.921738 151.612 1.1471Z" fill="#F4F4F4"/>
<path d="M170.319 1.1471C170.319 1.31517 170.269 1.47946 170.176 1.6192C170.082 1.75894 169.95 1.86785 169.794 1.93217C169.639 1.99648 169.468 2.01332 169.303 1.98053C169.139 1.94774 168.987 1.86681 168.868 1.74797C168.749 1.62914 168.669 1.47771 168.636 1.31288C168.603 1.14804 168.62 0.977197 168.684 0.821927C168.748 0.666657 168.857 0.533941 168.997 0.44057C169.137 0.347199 169.301 0.297363 169.469 0.297363C169.695 0.297363 169.911 0.386896 170.07 0.546253C170.229 0.705611 170.319 0.921738 170.319 1.1471Z" fill="#F4F4F4"/>
</svg>
